<?xml version="1.0" standalone="no"?>
<!DOCTYPE svg PUBLIC "-//W3C//DTD SVG 20010904//EN"
 "http://www.w3.org/TR/2001/REC-SVG-20010904/DTD/svg10.dtd">
<svg version="1.0" xmlns="http://www.w3.org/2000/svg"
 width="50.000000pt" height="50.000000pt" viewBox="0 0 50.000000 50.000000"
 preserveAspectRatio="xMidYMid meet">

<g transform="translate(0.000000,50.000000) scale(0.100000,-0.100000)"
fill="#000000" stroke="none">
<path d="M345 477 c-26 -16 -36 -29 -31 -44 6 -15 -31 -114 -50 -133 -30 -31
-177 0 -215 46 -31 37 -40 -3 -11 -51 17 -27 17 -31 3 -43 -12 -10 -13 -15 -3
-18 6 -3 10 -10 6 -15 -3 -5 16 -32 42 -59 41 -43 53 -50 86 -50 66 0 118 42
118 95 0 8 5 15 10 15 24 0 3 -67 -32 -99 -12 -12 -36 -25 -53 -30 l-30 -8 28
-8 c31 -8 35 -22 10 -41 -25 -17 -10 -28 16 -12 17 10 25 10 41 0 24 -15 30
-15 30 -2 0 6 -11 16 -25 22 -35 16 -31 23 17 37 99 30 122 68 112 183 l-7 81
27 -7 c31 -8 34 7 11 50 -8 16 -15 39 -15 50 0 12 -11 29 -25 38 -28 19 -33
19 -60 3z m47 -92 c0 -5 -5 -11 -11 -13 -6 -2 -11 4 -11 13 0 9 5 15 11 13 6
-2 11 -8 11 -13z"/>
</g>
</svg>
