<svg width="256" height="256" viewBox="0 0 256 256" xmlns="http://www.w3.org/2000/svg">
  <defs><clipPath id="shape-clip-256"><path d="M 128,0 
                 C 212.78719999999998,0 256,43.2128 256,128
                 C 256,212.78719999999998 212.78719999999998,256 128,256
                 C 43.2128,256 0,212.78719999999998 0,128
                 C 0,43.2128 43.2128,0 128,0 Z"/></clipPath></defs>
  <path d="M 0,0 L 256,0 L 256,256 L 0,256 Z" fill="#FAF9F5 " clip-path="url(#shape-clip-256)"/>
  <path d="M 128,128 m -89.6,0 a 89.6,89.6 0 1,0 179.2,0 a 89.6,89.6 0 1,0 -179.2,0" fill="#FAF9F5 " clip-path="url(#shape-clip-256)"/>
  <g transform="translate(128, 128)">
    <g transform="scale(2.5)">
      <g transform="translate(-50, -50)">
        
  <!-- 关键：在这里添加 transform 属性来移动整个组 -->
  <g transform="translate(6.2, 0)" stroke="#1d1d1f" stroke-width="8" stroke-linecap="round" stroke-linejoin="round">
    <!-- 'I' 保持垂直稳定，高度范围是 15 到 85 -->
    <path d="M25 85V15" stroke="#1d1d1f" fill="none"/>
    <path d="M17 15H33" stroke="#1d1d1f" fill="none"/>
    <path d="M17 85H33" stroke="#1d1d1f" fill="none"/>
    <!-- 'K' 的起止高度与 'I' 的主体对齐 (从 15 开始，到 85 结束) -->
    <path d="M65,15 C 40,30 40,70 75,85" stroke="#1d1d1f" fill="none"/>
  </g>

      </g>
    </g>
  </g>
</svg>