<?xml version="1.0" encoding="UTF-8"?>
<!DOCTYPE svg PUBLIC "-//W3C//DTD SVG 1.1//EN" "http://www.w3.org/Graphics/SVG/1.1/DTD/svg11.dtd">
<svg xmlns="http://www.w3.org/2000/svg" version="1.1" width="683px" height="679px" style="shape-rendering:geometricPrecision; text-rendering:geometricPrecision; image-rendering:optimizeQuality; fill-rule:evenodd; clip-rule:evenodd" xmlns:xlink="http://www.w3.org/1999/xlink">
<g><path style="opacity:1" fill="#fefefe" d="M -0.5,-0.5 C 227.167,-0.5 454.833,-0.5 682.5,-0.5C 682.5,225.833 682.5,452.167 682.5,678.5C 454.833,678.5 227.167,678.5 -0.5,678.5C -0.5,452.167 -0.5,225.833 -0.5,-0.5 Z"/></g>
<g><path style="opacity:1" fill="#c6c6c6" d="M 591.5,146.5 C 565.833,146.5 540.167,146.5 514.5,146.5C 514.167,146.5 513.833,146.5 513.5,146.5C 497.5,145.167 481.5,145.167 465.5,146.5C 465.833,311.668 465.5,476.668 464.5,641.5C 464.5,641.167 464.5,640.833 464.5,640.5C 464.5,475.833 464.5,311.167 464.5,146.5C 342.167,146.5 219.833,146.5 97.5,146.5C 97.1667,146.5 96.8333,146.5 96.5,146.5C 95.5015,109.337 95.1682,72.0037 95.5,34.5C 260.833,34.5 426.167,34.5 591.5,34.5C 591.5,71.8333 591.5,109.167 591.5,146.5 Z"/></g>
<g><path style="opacity:1" fill="#000000" d="M 97.5,146.5 C 219.833,146.5 342.167,146.5 464.5,146.5C 464.5,311.167 464.5,475.833 464.5,640.5C 379.167,640.5 293.833,640.5 208.5,640.5C 208.833,475.999 208.5,311.666 207.5,147.5C 191.167,147.5 174.833,147.5 158.5,147.5C 158.5,312.167 158.5,476.833 158.5,641.5C 138.167,641.5 117.833,641.5 97.5,641.5C 97.5,476.5 97.5,311.5 97.5,146.5 Z"/></g>
<g><path style="opacity:1" fill="#d9d9d9" d="M 465.5,146.5 C 481.5,145.167 497.5,145.167 513.5,146.5C 513.5,311.5 513.5,476.5 513.5,641.5C 512.5,476.668 512.167,311.668 512.5,146.5C 496.833,146.5 481.167,146.5 465.5,146.5 Z"/></g>
<g><path style="opacity:1" fill="#292929" d="M 207.5,147.5 C 208.5,311.666 208.833,475.999 208.5,640.5C 293.833,640.5 379.167,640.5 464.5,640.5C 464.5,640.833 464.5,641.167 464.5,641.5C 378.833,641.5 293.167,641.5 207.5,641.5C 207.5,476.833 207.5,312.167 207.5,147.5 Z"/></g>
<g><path style="opacity:1" fill="#818181" d="M 96.5,146.5 C 96.8333,146.5 97.1667,146.5 97.5,146.5C 97.5,311.5 97.5,476.5 97.5,641.5C 117.833,641.5 138.167,641.5 158.5,641.5C 138.007,642.497 117.34,642.831 96.5,642.5C 96.5,477.167 96.5,311.833 96.5,146.5 Z"/></g>
<g><path style="opacity:1" fill="#6b6b6b" d="M 513.5,146.5 C 513.833,146.5 514.167,146.5 514.5,146.5C 514.5,311.5 514.5,476.5 514.5,641.5C 540.167,641.5 565.833,641.5 591.5,641.5C 591.5,476.5 591.5,311.5 591.5,146.5C 592.5,311.666 592.833,476.999 592.5,642.5C 565.995,642.831 539.661,642.498 513.5,641.5C 513.5,476.5 513.5,311.5 513.5,146.5 Z"/></g>
<g><path style="opacity:1" fill="#000000" d="M 514.5,146.5 C 540.167,146.5 565.833,146.5 591.5,146.5C 591.5,311.5 591.5,476.5 591.5,641.5C 565.833,641.5 540.167,641.5 514.5,641.5C 514.5,476.5 514.5,311.5 514.5,146.5 Z"/></g>
</svg>
